HIERARCHY
ROOT Hips
{
    OFFSET   0.000000   0.000000   0.000000
    CHANNELS 6 Xposition Yposition Zposition Zrotation Xrotation Yrotation
    JOINT Chest
    {
        OFFSET   0.000000   8.007230   0.000000
        CHANNELS 3 Zrotation Xrotation Yrotation
        JOINT Chest2
        {
            OFFSET   0.000000  22.077100   0.000000
            CHANNELS 3 Zrotation Xrotation Yrotation
            JOINT Neck
            {
                OFFSET   0.000000  23.255100   0.000000
                CHANNELS 3 Zrotation Xrotation Yrotation
                JOINT Head
                {
                    OFFSET   0.000000  14.370100   1.956600
                    CHANNELS 3 Zrotation Xrotation Yrotation
                    End Site
                    {
                        OFFSET   0.000000  19.566000   0.000000
                    }
                }
            }
            JOINT LeftCollar
            {
                OFFSET   3.911900  19.017000  -0.467063
                CHANNELS 3 Zrotation Xrotation Yrotation
                JOINT LeftShoulder
                {
                    OFFSET  10.383700   0.000000   0.000000
                    CHANNELS 3 Zrotation Xrotation Yrotation
                    JOINT LeftElbow
                    {
                        OFFSET  26.662100   0.001193   0.000980
                        CHANNELS 3 Zrotation Xrotation Yrotation
                        JOINT LeftWrist
                        {
                            OFFSET  28.869000  -0.000059  -0.000082
                            CHANNELS 3 Zrotation Xrotation Yrotation
                            JOINT LeftFinger0
                            {
                                OFFSET   2.044650  -2.323450   3.252850
                                CHANNELS 3 Zrotation Xrotation Yrotation
                                JOINT LeftFinger01
                                {
                                    OFFSET   3.088130   0.000000   0.000000
                                    CHANNELS 3 Zrotation Xrotation Yrotation
                                    JOINT LeftFinger02
                                    {
                                        OFFSET   2.639460   0.000000   0.000000
                                        CHANNELS 3 Zrotation Xrotation Yrotation
                                        End Site
                                        {
                                            OFFSET   2.582190   0.000000   0.000000
                                        }
                                    }
                                }
                            }
                            JOINT LeftFinger1
                            {
                                OFFSET   8.364480   0.000000   3.252850
                                CHANNELS 3 Zrotation Xrotation Yrotation
                                JOINT LeftFinger11
                                {
                                    OFFSET   4.646930   0.000000   0.000000
                                    CHANNELS 3 Zrotation Xrotation Yrotation
                                    JOINT LeftFinger12
                                    {
                                        OFFSET   2.323470   0.000000   0.000000
                                        CHANNELS 3 Zrotation Xrotation Yrotation
                                        End Site
                                        {
                                            OFFSET   2.273050   0.000000   0.000000
                                        }
                                    }
                                }
                            }
                            JOINT LeftFinger2
                            {
                                OFFSET   8.364490   0.000016   1.078090
                                CHANNELS 3 Zrotation Xrotation Yrotation
                                JOINT LeftFinger21
                                {
                                    OFFSET   5.111610   0.000000   0.000000
                                    CHANNELS 3 Zrotation Xrotation Yrotation
                                    JOINT LeftFinger22
                                    {
                                        OFFSET   2.788150   0.000016   0.000000
                                        CHANNELS 3 Zrotation Xrotation Yrotation
                                        End Site
                                        {
                                            OFFSET   2.727660   0.000000   0.000000
                                        }
                                    }
                                }
                            }
                            JOINT LeftFinger3
                            {
                                OFFSET   7.899780   0.000015  -1.078090
                                CHANNELS 3 Zrotation Xrotation Yrotation
                                JOINT LeftFinger31
                                {
                                    OFFSET   4.646930   0.000000   0.000000
                                    CHANNELS 3 Zrotation Xrotation Yrotation
                                    JOINT LeftFinger32
                                    {
                                        OFFSET   2.323470   0.000000   0.000000
                                        CHANNELS 3 Zrotation Xrotation Yrotation
                                        End Site
                                        {
                                            OFFSET   2.273050   0.000000   0.000000
                                        }
                                    }
                                }
                            }
                            JOINT LeftFinger4
                            {
                                OFFSET   7.435090   0.000000  -3.252850
                                CHANNELS 3 Zrotation Xrotation Yrotation
                                JOINT LeftFinger41
                                {
                                    OFFSET   3.717550   0.000000   0.000000
                                    CHANNELS 3 Zrotation Xrotation Yrotation
                                    JOINT LeftFinger42
                                    {
                                        OFFSET   1.858770   0.000000   0.000000
                                        CHANNELS 3 Zrotation Xrotation Yrotation
                                        End Site
                                        {
                                            OFFSET   1.818440   0.000000   0.000000
                                        }
                                    }
                                }
                            }
                        }
                    }
                }
            }
            JOINT RightCollar
            {
                OFFSET  -3.911910  19.017000  -0.467062
                CHANNELS 3 Zrotation Xrotation Yrotation
                JOINT RightShoulder
                {
                    OFFSET -10.383700   0.000014   0.000000
                    CHANNELS 3 Zrotation Xrotation Yrotation
                    JOINT RightElbow
                    {
                        OFFSET -26.662100   0.001225   0.001091
                        CHANNELS 3 Zrotation Xrotation Yrotation
                        JOINT RightWrist
                        {
                            OFFSET -28.869000  -0.000020  -0.000085
                            CHANNELS 3 Zrotation Xrotation Yrotation
                            JOINT RightFinger0
                            {
                                OFFSET  -2.044650  -2.323490   3.252850
                                CHANNELS 3 Zrotation Xrotation Yrotation
                                JOINT RightFinger01
                                {
                                    OFFSET  -3.088130   0.000000   0.000000
                                    CHANNELS 3 Zrotation Xrotation Yrotation
                                    JOINT RightFinger02
                                    {
                                        OFFSET  -2.639460   0.000000   0.000000
                                        CHANNELS 3 Zrotation Xrotation Yrotation
                                        End Site
                                        {
                                            OFFSET  -2.582190   0.000000   0.000000
                                        }
                                    }
                                }
                            }
                            JOINT RightFinger1
                            {
                                OFFSET  -8.364480   0.000000   3.252850
                                CHANNELS 3 Zrotation Xrotation Yrotation
                                JOINT RightFinger11
                                {
                                    OFFSET  -4.646930   0.000000   0.000000
                                    CHANNELS 3 Zrotation Xrotation Yrotation
                                    JOINT RightFinger12
                                    {
                                        OFFSET  -2.323470   0.000000   0.000000
                                        CHANNELS 3 Zrotation Xrotation Yrotation
                                        End Site
                                        {
                                            OFFSET  -2.273050   0.000000   0.000000
                                        }
                                    }
                                }
                            }
                            JOINT RightFinger2
                            {
                                OFFSET  -8.364480   0.000000   1.078090
                                CHANNELS 3 Zrotation Xrotation Yrotation
                                JOINT RightFinger21
                                {
                                    OFFSET  -5.111620   0.000000   0.000000
                                    CHANNELS 3 Zrotation Xrotation Yrotation
                                    JOINT RightFinger22
                                    {
                                        OFFSET  -2.788160   0.000000   0.000000
                                        CHANNELS 3 Zrotation Xrotation Yrotation
                                        End Site
                                        {
                                            OFFSET  -2.727660   0.000000   0.000000
                                        }
                                    }
                                }
                            }
                            JOINT RightFinger3
                            {
                                OFFSET  -7.899780   0.000000  -1.078090
                                CHANNELS 3 Zrotation Xrotation Yrotation
                                JOINT RightFinger31
                                {
                                    OFFSET  -4.646930   0.000000   0.000000
                                    CHANNELS 3 Zrotation Xrotation Yrotation
                                    JOINT RightFinger32
                                    {
                                        OFFSET  -2.323470   0.000000   0.000000
                                        CHANNELS 3 Zrotation Xrotation Yrotation
                                        End Site
                                        {
                                            OFFSET  -2.273050   0.000000   0.000000
                                        }
                                    }
                                }
                            }
                            JOINT RightFinger4
                            {
                                OFFSET  -7.435090   0.000000  -3.252850
                                CHANNELS 3 Zrotation Xrotation Yrotation
                                JOINT RightFinger41
                                {
                                    OFFSET  -3.717550   0.000000   0.000000
                                    CHANNELS 3 Zrotation Xrotation Yrotation
                                    JOINT RightFinger42
                                    {
                                        OFFSET  -1.858760   0.000000   0.000000
                                        CHANNELS 3 Zrotation Xrotation Yrotation
                                        End Site
                                        {
                                            OFFSET  -1.818440   0.000000   0.000000
                                        }
                                    }
                                }
                            }
                        }
                    }
                }
            }
        }
    }
    JOINT LeftHip
    {
        OFFSET   9.783030   0.000000   0.000000
        CHANNELS 3 Zrotation Xrotation Yrotation
        JOINT LeftKnee
        {
            OFFSET   0.000063 -41.789100   0.000608
            CHANNELS 3 Zrotation Xrotation Yrotation
            JOINT LeftAnkle
            {
                OFFSET   0.000048 -41.133200  -0.000184
                CHANNELS 3 Zrotation Xrotation Yrotation
                JOINT LeftToe
                {
                    OFFSET   0.000000  -6.358960  14.674500
                    CHANNELS 3 Zrotation Xrotation Yrotation
                    End Site
                    {
                        OFFSET   0.000000   0.000000   3.913200
                    }
                }
            }
        }
    }
    JOINT RightHip
    {
        OFFSET  -9.783030   0.000000   0.000000
        CHANNELS 3 Zrotation Xrotation Yrotation
        JOINT RightKnee
        {
            OFFSET   0.000071 -41.789100   0.001239
            CHANNELS 3 Zrotation Xrotation Yrotation
            JOINT RightAnkle
            {
                OFFSET   0.000037 -41.133200  -0.000166
                CHANNELS 3 Zrotation Xrotation Yrotation
                JOINT RightToe
                {
                    OFFSET   0.000000  -6.358960  14.674500
                    CHANNELS 3 Zrotation Xrotation Yrotation
                    End Site
                    {
                        OFFSET   0.000000   0.000000   3.913200
                    }
                }
            }
        }
    }
}
MOTION
Frames: 4
Frame Time:   0.016667
  0.240904  89.535200  -1.777890  -2.560570  -1.398230   1.124860   1.587090   2.006640  -0.993179   3.211680   3.984670  -2.043480  -0.033572   0.200608   0.002343  -0.065644   0.406679   8.931030  -7.528670   3.274200   0.998354 -69.484600  17.432400  -7.447770  -2.612210  -5.955700  -9.000540   6.197770  -7.108450   9.434860  42.823400  27.492300 -64.085600 -16.971000  -0.003243  -0.000922  -3.477560   0.005565  -0.001575 -22.902900   3.339670  -7.851830 -18.927900   0.001373  -0.005014 -13.249500   0.002130  -0.005568 -21.308200   1.545770  -3.956730 -21.362700   0.003461  -0.006887 -14.227600   0.000183   0.005984 -20.604400  -0.172202   0.457987 -20.605100   0.001545  -0.005575 -13.723000  -0.000254  -0.003223 -21.958500  -0.281555   0.698270 -32.940300   0.004112  -0.004749 -21.938200   0.001847   0.009486   6.486310   0.233147   9.939110  71.546100   6.041800   0.818960   0.008995  -7.228020   8.604440 -14.913400 -15.660600  -4.406540 -52.468000  38.424300  76.510000  12.286100  -0.002022   0.000514   1.143060  -0.007609   0.000683  25.501200   2.788280   5.822990  20.980700   0.004110  -0.002687  14.695700   0.001520  -0.003658  24.572000   2.693240   5.867420  24.710000   0.002214  -0.005436  16.456900  -0.002737  -0.003999  23.305000   1.251300   2.891570  23.336700   0.000302  -0.006404  15.542200  -0.001776  -0.001295  23.351100  -1.060890  -2.456920  35.060800   0.004535  -0.005772  23.350500  -0.002811  -0.004058   3.723050   4.098160   4.504350   1.142380   0.087813  13.290600  -2.568820  -1.659250   3.447710  -0.000000   0.000000   0.000000   0.450142  -0.362421  -4.784160   1.391310   4.273260  -9.033240  -2.149400  -1.983070  -3.139210   0.000000   0.000000   0.000000
  0.240927  89.535200  -1.777900  -2.560460  -1.398180   1.128050   1.587190   2.010210  -0.987759   3.211750   3.991950  -2.032740  -0.033746   0.175589   0.002333  -0.062290   0.355918   8.930990  -7.528390   3.262080   0.995310 -69.486800  17.431800  -7.458600  -2.612260  -5.955700  -9.000540   6.199280  -7.112860   9.443040  42.825200  27.498600 -64.092400 -16.973400  -0.003244  -0.000915  -3.482210   0.005561  -0.001585 -22.904400   3.334630  -7.838520 -18.927900   0.001373  -0.005009 -13.249500   0.002129  -0.005571 -21.309200   1.538850  -3.938520 -21.362700   0.003463  -0.006893 -14.227600   0.000183   0.005986 -20.602600  -0.179078   0.476331 -20.603400   0.001545  -0.005581 -13.721800  -0.000254  -0.003225 -21.962700  -0.290801   0.721025 -32.946700   0.004115  -0.004754 -21.942500   0.001847   0.009488   6.487800   0.225182   9.939470  71.540600   6.030870   0.803413   0.019052  -7.228770   8.583890 -14.906200 -15.640800  -4.418650 -52.468500  38.423200  76.509600  12.298000  -0.002022   0.000528   1.149010  -0.007612   0.000670  25.509300   2.784960   5.813500  20.987300   0.004111  -0.002680  14.695700   0.001519  -0.003660  24.580000   2.690140   5.857850  24.718000   0.002212  -0.005437  16.462200  -0.002740  -0.003998  23.317900   1.249670   2.890230  23.349500   0.000303  -0.006404  15.550800  -0.001777  -0.001288  23.353000  -1.063430  -2.461320  35.063600   0.004535  -0.005771  23.352400  -0.002813  -0.004060   3.724460   4.077470   4.503890   1.143940   0.122772  13.290100  -2.573660  -1.679850   3.443980  -0.000000   0.000000   0.000000   0.450091  -0.339740  -4.784200   1.392160   4.244750  -9.032610  -2.149380  -1.982940  -3.138990   0.000000   0.000000   0.000000
  0.240984  89.535200  -1.777920  -2.560230  -1.398120   1.135440   1.587330   2.015550  -0.978753   3.211840   4.002870  -2.014880  -0.034002   0.137451   0.002322  -0.057570   0.278569   8.930940  -7.527860   3.241870   0.988507 -69.490900  17.430900  -7.475070  -2.612340  -5.955690  -9.000520   6.199900  -7.117630   9.455870  42.826800  27.509400 -64.104200 -16.978400  -0.003250  -0.000907  -3.489170   0.005557  -0.001598 -22.906800   3.326140  -7.818180 -18.927900   0.001373  -0.004994 -13.249500   0.002128  -0.005580 -21.310500   1.529160  -3.913400 -21.362700   0.003466  -0.006909 -14.227600   0.000183   0.005988 -20.598000  -0.189214   0.503426 -20.598900   0.001544  -0.005596 -13.718800  -0.000255  -0.003234 -21.966800  -0.304234   0.754211 -32.953100   0.004121  -0.004769 -21.946800   0.001847   0.009494   6.490680   0.209643   9.939820  71.529500   6.019960   0.776869   0.038033  -7.232100   8.542290 -14.880500 -15.601000  -4.437660 -52.471200  38.418500  76.505200  12.313200  -0.002021   0.000543   1.156580  -0.007615   0.000658  25.518800   2.775150   5.791320  20.993900   0.004112  -0.002662  14.695700   0.001516  -0.003664  24.589300   2.680630   5.835550  24.726000   0.002206  -0.005438  16.467500  -0.002750  -0.003997  23.331200   1.243810   2.881290  23.362400   0.000304  -0.006409  15.559400  -0.001779  -0.001265  23.354600  -1.069310  -2.474590  35.066500   0.004534  -0.005767  23.354300  -0.002817  -0.004063   3.725860   4.056770   4.503430   1.145500   0.157732  13.289700  -2.578600  -1.700450   3.437130   0.000000   0.000000  -0.000000   0.450040  -0.317059  -4.784280   1.393010   4.216240  -9.031990  -2.149310  -1.982760  -3.138760   0.000000   0.000000   0.000000
  0.241075  89.535300  -1.777910  -2.559900  -1.398190   1.146150   1.587470   2.018350  -0.971742   3.211920   4.008670  -2.000930  -0.034154   0.114588   0.002337  -0.056430   0.232295   8.924220  -7.527310   3.224330   0.979543 -69.493100  17.449800  -7.484800  -2.613110  -5.967690  -8.989620   6.188780  -7.117970   9.465430  42.824200  27.521400 -64.116900 -16.986600  -0.003282  -0.000920  -3.493780   0.005563  -0.001602 -22.900500   3.319120  -7.804450 -18.921800   0.001373  -0.004972 -13.245200   0.002127  -0.005595 -21.306300   1.525010  -3.903950 -21.358100   0.003469  -0.006933 -14.224500   0.000182   0.005990 -20.591500  -0.195379   0.520088 -20.592500   0.001544  -0.005616 -13.714500  -0.000254  -0.003248 -21.960900  -0.311741   0.773182 -32.944500   0.004130  -0.004791 -21.941000   0.001847   0.009503   6.493880   0.192193   9.938430  71.516200   6.026200   0.754210   0.059947  -7.244400   8.492030 -14.826200 -15.551600  -4.449310 -52.476800  38.393600  76.447800  12.317000  -0.002023   0.000520   1.158470  -0.007615   0.000663  25.506700   2.755740   5.751640  20.982100   0.004108  -0.002638  14.687500   0.001510  -0.003668  24.571700   2.661180   5.796130  24.706100   0.002200  -0.005440  16.454200  -0.002766  -0.003998  23.305800   1.228620   2.852180  23.336100   0.000305  -0.006421  15.541900  -0.001778  -0.001225  23.323200  -1.080170  -2.505700  35.020400   0.004532  -0.005755  23.323600  -0.002824  -0.004069   3.724000   4.092230   4.503820   1.146970   0.079376  13.290900  -2.570560  -1.662010   3.430140   0.000000   0.000000   0.000000   0.449510  -0.374875  -4.784360   1.387300   4.266840  -9.037750  -2.149200  -1.982690  -3.139640  -0.000000   0.000000  -0.000000
